<?xml version="1.0" encoding="UTF-8"?> <svg xmlns="http://www.w3.org/2000/svg" xmlns:xlink="http://www.w3.org/1999/xlink" version="1.1" id="Camada_1" x="0px" y="0px" viewBox="0 0 60 60" style="enable-background:new 0 0 60 60;" xml:space="preserve"> <g> <path d="M38.47,53.22h-0.02c-0.03,0-0.07,0-0.1-0.01c-0.9-0.26-13.81-6.45-13.81-12.32V25.67c0-0.2,0.16-0.35,0.35-0.35 c3.75,0,12.04-3.11,13.24-4.97c0.13-0.2,0.49-0.2,0.63,0c1.2,1.86,9.5,4.97,13.24,4.97c0.2,0,0.35,0.16,0.35,0.35v15.22 c0,5.87-12.9,12.06-13.81,12.32C38.54,53.21,38.5,53.22,38.47,53.22z M38.47,52.86L38.47,52.86L38.47,52.86z M25.26,26.02v14.87 c0,5.13,11.82,11.07,13.2,11.61c1.38-0.54,13.2-6.48,13.2-11.61V26.02c-3.72-0.17-11.22-2.81-13.2-4.93 C36.48,23.2,28.98,25.85,25.26,26.02z"></path> <path d="M21.75,31.01c-0.03,0-0.07-0.01-0.1-0.02c-3.25-0.98-5.44-3.93-5.44-7.33c0-4.22,3.43-7.65,7.65-7.65 c2.94,0,5.65,1.72,6.92,4.37c0.08,0.18,0.01,0.39-0.17,0.47c-0.18,0.08-0.39,0.01-0.47-0.17c-1.15-2.41-3.61-3.97-6.28-3.97 c-3.83,0-6.95,3.12-6.95,6.95c0,3.08,1.98,5.76,4.93,6.65c0.19,0.06,0.29,0.25,0.24,0.44C22.04,30.91,21.9,31.01,21.75,31.01z"></path> <path d="M25.49,12.65c-0.02,0-0.03,0-0.05,0c-0.19-0.03-0.33-0.21-0.3-0.4l0.76-5.16c0.03-0.19,0.21-0.33,0.4-0.3 c0.19,0.03,0.33,0.21,0.3,0.4l-0.76,5.16C25.82,12.52,25.66,12.65,25.49,12.65z"></path> <path d="M17.8,14.22c-0.12,0-0.24-0.06-0.3-0.17l-2.73-4.44c-0.1-0.17-0.05-0.38,0.12-0.49c0.17-0.1,0.39-0.05,0.49,0.12l2.73,4.44 c0.1,0.17,0.05,0.38-0.12,0.49C17.93,14.21,17.87,14.22,17.8,14.22z"></path> <path d="M12.93,20.37c-0.04,0-0.07-0.01-0.11-0.02L7.87,18.7c-0.19-0.06-0.29-0.26-0.22-0.45c0.06-0.19,0.26-0.29,0.45-0.22 l4.95,1.65c0.19,0.06,0.29,0.26,0.22,0.45C13.21,20.28,13.07,20.37,12.93,20.37z"></path> <path d="M8.29,30.13c-0.14,0-0.27-0.09-0.33-0.22c-0.07-0.18,0.02-0.39,0.2-0.46l4.85-1.92c0.18-0.07,0.39,0.02,0.46,0.2 c0.07,0.18-0.02,0.39-0.2,0.46l-4.85,1.92C8.38,30.12,8.34,30.13,8.29,30.13z"></path> <path d="M15.87,38.67c-0.06,0-0.11-0.01-0.17-0.04c-0.17-0.09-0.24-0.31-0.14-0.48l2.48-4.59c0.09-0.17,0.31-0.24,0.48-0.14 c0.17,0.09,0.24,0.31,0.14,0.48l-2.48,4.59C16.11,38.6,15.99,38.67,15.87,38.67z"></path> <path d="M32.39,16.38c-0.1,0-0.19-0.04-0.26-0.12c-0.13-0.15-0.12-0.37,0.03-0.5l3.9-3.46c0.15-0.13,0.37-0.12,0.5,0.03 c0.13,0.15,0.12,0.37-0.03,0.5l-3.9,3.46C32.56,16.35,32.48,16.38,32.39,16.38z"></path> </g> </svg> 