<?xml version="1.0" encoding="UTF-8"?> <svg xmlns="http://www.w3.org/2000/svg" xmlns:xlink="http://www.w3.org/1999/xlink" version="1.1" id="Camada_1" x="0px" y="0px" viewBox="0 0 60 60" style="enable-background:new 0 0 60 60;" xml:space="preserve"> <g> <path d="M39.33,24.36l-1.27-2.86c-0.36-1.07-1.33-1.77-2.42-1.77H24.36c-1.09,0-2.06,0.7-2.4,1.74l-1.29,2.89L20,24.06l1.27-2.85 c0.43-1.3,1.68-2.2,3.08-2.2h11.28c1.41,0,2.65,0.9,3.1,2.24l1.26,2.82L39.33,24.36z"></path> <rect x="25.17" y="31.56" width="9.66" height="0.73"></rect> <path d="M41.59,38.09h-3.86c-0.73,0-1.33-0.59-1.33-1.32v-1.58H23.6v1.58c0,0.73-0.6,1.32-1.33,1.32H18.4 c-0.73,0-1.33-0.59-1.33-1.32v-2.53c-0.62-0.61-0.97-1.44-0.97-2.3v-1.53c0-0.93,0.34-1.8,0.97-2.48v-0.56l-1.63-0.53 c-0.7-0.03-1.27-0.62-1.27-1.33v-1.3c0-0.74,0.6-1.34,1.33-1.34h2.9c0.22,0,0.39,0.14,1.03,0.68c0.9,0.77,2.59,2.21,3.8,2.21h13.53 c1.21,0,2.9-1.44,3.8-2.21c0.63-0.54,0.81-0.68,1.03-0.68h2.9c0.73,0,1.33,0.6,1.33,1.34v1.3c0,0.71-0.56,1.3-1.27,1.33l-1.63,0.53 v0.56c0.62,0.68,0.97,1.55,0.97,2.48v1.53c0,0.86-0.35,1.69-0.97,2.3v2.53C42.93,37.5,42.33,38.09,41.59,38.09z M22.87,34.46h14.26 v2.31c0,0.33,0.26,0.59,0.6,0.59h3.86c0.34,0,0.6-0.26,0.6-0.59v-2.85l0.12-0.11c0.55-0.49,0.85-1.16,0.85-1.88v-1.53 c0-0.78-0.31-1.52-0.86-2.08l-0.11-0.11v-1.38l2.3-0.73c0.33,0,0.6-0.27,0.6-0.6v-1.3c0-0.33-0.28-0.62-0.6-0.62h-2.83 c-0.11,0.07-0.38,0.3-0.62,0.51c-1.05,0.89-2.79,2.39-4.28,2.39H23.24c-1.48,0-3.23-1.5-4.28-2.39c-0.24-0.21-0.51-0.44-0.62-0.51 h-2.83c-0.33,0-0.6,0.28-0.6,0.62v1.3c0,0.33,0.27,0.6,0.6,0.6l0.11,0.02l2.18,0.72v1.38l-0.11,0.11 c-0.55,0.56-0.86,1.29-0.86,2.08v1.53c0,0.72,0.3,1.38,0.85,1.88l0.12,0.11v2.85c0,0.33,0.26,0.59,0.6,0.59h3.86 c0.34,0,0.6-0.26,0.6-0.59V34.46z"></path> <path d="M35.8,30.37v-0.73c1.54,0,3.1-0.55,4.2-1.48l0.47,0.56C39.25,29.75,37.5,30.37,35.8,30.37z"></path> <path d="M24.2,30.37c-1.7,0-3.45-0.62-4.67-1.65l0.47-0.56c1.09,0.93,2.66,1.48,4.2,1.48V30.37z"></path> <rect x="19.37" y="34.46" width="3.86" height="0.73"></rect> <rect x="36.76" y="34.46" width="3.86" height="0.73"></rect> <path d="M30,52.58c-0.03,0-0.06,0-0.09-0.01c-1.01-0.26-19.6-9.75-19.6-18.7V15.51c0-0.2,0.16-0.36,0.36-0.36 c4.86,0,17.3-5.23,19.04-7.58c0.07-0.09,0.18-0.15,0.29-0.15l0,0c0.12,0,0.22,0.05,0.29,0.15c1.84,2.48,13.9,7.58,19.02,7.58 c0.2,0,0.36,0.16,0.36,0.36v19.32c0,7.36-18.75,17.52-19.6,17.73C30.06,52.58,30.03,52.58,30,52.58z M11.04,15.87v18 c0,8.19,17.28,17.32,18.96,17.96c1.57-0.65,18.96-10.36,18.96-17V15.87C43.63,15.66,32.61,11,30.01,8.34 C27.34,11.06,15.86,15.64,11.04,15.87z"></path> </g> </svg> 