<?xml version="1.0" encoding="UTF-8"?> <svg xmlns="http://www.w3.org/2000/svg" xmlns:xlink="http://www.w3.org/1999/xlink" version="1.1" id="Camada_1" x="0px" y="0px" viewBox="0 0 60 60" style="enable-background:new 0 0 60 60;" xml:space="preserve"> <path d="M49.45,22.66c-0.34-4.26-3.43-5.28-3.56-5.32c-0.83-0.27-1.64-0.41-2.41-0.41c-4.11,0-6.16,3.94-6.99,6.15 c-0.98-1.53-2.73-3.1-8.35-4.47c-6.19-1.51-7.88-3.09-7.9-3.1l-0.38-0.37l-0.12,0.52c-0.04,0.17-0.86,4.09,2.07,7.61 c-1.8,0.29-3.4,0.44-4.75,0.44c-1.61,0-2.27-0.22-2.28-0.22l-0.5-0.18l0.12,0.52c0.02,0.07,1.68,7.05,10.07,7.56 c-0.59,0.37-1.82,0.87-4.24,1.04l-1.11,0.08l1,0.48c0.11,0.05,1.56,0.75,3.61,1.4c-0.58,0.26-1.14,0.48-1.67,0.65 C15.27,37.2,11.05,37.56,11,37.56l-1.29,0.1l1.2,0.47c0.08,0.03,1.92,0.73,4.71,0.73c0.69,0,1.38-0.04,2.06-0.13 c-2.6,1.21-6.54,3.17-8.87,4.96l-1.52,1.17l1.8-0.65c0.09-0.03,9.22-3.34,13.54-3.94c0.38,0.09,2.6,0.56,5.63,0.56 c5.82,0,15.97-1.85,18.92-14.14l5.49,1.11L49.45,22.66z M20.26,16.27c0.83,0.56,2.99,1.76,7.74,2.92c5.92,1.45,7.36,3.07,8.23,4.62 c-0.1,0.33-0.16,0.56-0.19,0.68c-0.05,0.05-0.13,0.15-0.25,0.28c0,0-0.01,0.01-0.01,0.01c-0.06-0.07-0.13-0.14-0.19-0.21 c0,0,0,0-0.01-0.01c-0.06-0.06-0.12-0.12-0.17-0.17c-0.01-0.01-0.02-0.01-0.02-0.02c-0.05-0.05-0.11-0.1-0.16-0.14 c-0.01-0.01-0.02-0.02-0.03-0.03c-0.06-0.05-0.12-0.1-0.18-0.15c-1.2-0.92-2.62-1.82-5.64-1.82c-0.56,0-1.17,0.03-1.82,0.09 c-1.08,0.1-2.29,0.29-3.64,0.57c-0.01,0-0.02,0-0.03,0.01c-0.44,0.09-0.87,0.17-1.31,0.25c-0.03,0.01-0.06,0.01-0.1,0.02 C20.1,20.48,20.14,17.42,20.26,16.27z M25.49,31.28l0.25-0.43l-0.5-0.01c-7.37-0.1-9.6-5.09-10.12-6.67 c0.39,0.07,1.03,0.14,1.95,0.14c1.48,0,3.23-0.17,5.22-0.51l0,0l0.16-0.03c0.08-0.01,0.16-0.03,0.24-0.04 c0.16-0.03,0.32-0.06,0.48-0.09c0.29-0.06,0.59-0.11,0.88-0.17c2.13-0.44,3.88-0.65,5.34-0.65c2.83,0,4.11,0.8,5.28,1.7 c0.07,0.05,0.13,0.11,0.2,0.17c0.01,0.01,0.02,0.02,0.04,0.03c0.21,0.19,0.43,0.42,0.66,0.69l0.02,0.02 c0.07,0.09,0.14,0.18,0.21,0.27c0.01,0.01,0.01,0.02,0.02,0.03c0.14,0.19,0.28,0.4,0.42,0.6c0.01,0.01,0.01,0.02,0.02,0.03 c0.06,0.1,0.13,0.2,0.19,0.3c0.01,0.01,0.02,0.03,0.03,0.04c0.12,0.2,0.23,0.4,0.34,0.59c0.01,0.02,0.02,0.03,0.03,0.05 c0.05,0.09,0.1,0.18,0.14,0.27c0.01,0.02,0.02,0.04,0.03,0.06c0.04,0.08,0.08,0.16,0.12,0.24c0,0.01,0.01,0.02,0.01,0.03 c0.04,0.08,0.08,0.16,0.12,0.24c0.01,0.02,0.02,0.04,0.03,0.06c0.04,0.07,0.07,0.15,0.1,0.21c0.01,0.01,0.01,0.03,0.02,0.04 c0.03,0.06,0.06,0.12,0.08,0.18c0,0.01,0.01,0.02,0.01,0.03c0.03,0.06,0.05,0.12,0.08,0.17c0.01,0.01,0.01,0.02,0.01,0.03 c0.02,0.05,0.04,0.1,0.06,0.14c0,0.01,0,0.01,0.01,0.01c0.02,0.04,0.03,0.08,0.04,0.11c0,0,0,0.01,0,0.01 c0.01,0.03,0.02,0.05,0.03,0.07c0,0,0,0.01,0,0.01c0,0.01,0.01,0.02,0.01,0.02c0.04,0.12,1.02,3.09-3.95,5.09 c-0.13,0.05-0.27,0.1-0.41,0.15c-0.03,0.01-0.07,0.02-0.1,0.03c-0.11,0.03-0.22,0.07-0.34,0.1c-0.03,0.01-0.07,0.02-0.1,0.03 c-0.12,0.03-0.25,0.06-0.37,0.09c-0.03,0-0.05,0.01-0.08,0.01c-0.14,0.03-0.28,0.05-0.43,0.08c-0.01,0-0.02,0-0.03,0.01 c-0.82,0.12-1.71,0.15-2.68,0.08c-0.03,0-0.06,0-0.09-0.01c-0.16-0.01-0.32-0.03-0.47-0.04c-0.06-0.01-0.12-0.01-0.18-0.02 c-0.13-0.01-0.26-0.03-0.4-0.05c-0.1-0.01-0.19-0.03-0.29-0.04c-0.1-0.01-0.2-0.03-0.3-0.05c-0.13-0.02-0.27-0.04-0.4-0.07 c-0.06-0.01-0.12-0.02-0.19-0.03c-0.17-0.03-0.34-0.07-0.5-0.1c-0.02-0.01-0.05-0.01-0.07-0.02c-2.05-0.45-3.88-1.13-4.96-1.58 C24.7,32.49,25.41,31.41,25.49,31.28z M46.75,25.99l-0.06,0.28c-2.63,11.54-11.46,13.96-18.41,13.96c-3.19,0-5.53-0.55-5.55-0.55 l-0.05-0.01l-0.05,0.01c-3.11,0.42-8.56,2.19-11.58,3.22c3.85-2.38,9.39-4.74,9.46-4.77l-0.2-0.55c-1.51,0.46-3.08,0.7-4.66,0.7 c-1.26,0-2.32-0.15-3.1-0.31c1.81-0.28,5.21-0.92,9.71-2.35c0.74-0.23,1.52-0.55,2.33-0.96c1.71,0.49,3.72,0.89,5.68,0.89l0,0 c0.64,0,1.24-0.05,1.81-0.13c0.01,0,0.03,0,0.04-0.01c0.15-0.02,0.29-0.05,0.44-0.08c0.03-0.01,0.05-0.01,0.08-0.02 c0.13-0.03,0.26-0.06,0.39-0.09c0.03-0.01,0.07-0.02,0.1-0.03c0.12-0.03,0.24-0.07,0.36-0.11c0.03-0.01,0.07-0.02,0.11-0.03 c0.15-0.05,0.29-0.1,0.43-0.16c5.52-2.23,4.3-5.81,4.28-5.85c0-0.01-0.01-0.02-0.02-0.04c0,0,0,0,0,0c-0.13-0.32-0.93-2.27-2.1-3.78 c0.24-0.26,0.37-0.42,0.37-0.42l0.05-0.06l0.02-0.07c0,0,0-0.01,0.01-0.04c0.13-0.53,1.84-7.13,6.87-7.13c0.7,0,1.45,0.13,2.23,0.38 c0.03,0.01,2.88,0.95,3.15,4.87l0.01,0.07l2.59,4.09L46.75,25.99z"></path> </svg> 