<?xml version="1.0" encoding="UTF-8"?> <svg xmlns="http://www.w3.org/2000/svg" xmlns:xlink="http://www.w3.org/1999/xlink" version="1.1" id="Camada_1" x="0px" y="0px" viewBox="0 0 60 60" style="enable-background:new 0 0 60 60;" xml:space="preserve"> <g> <path d="M30,13.76c0.15,0,0.27-0.12,0.27-0.27V8.63c0-0.15-0.12-0.27-0.27-0.27c-0.15,0-0.27,0.12-0.27,0.27v4.86 C29.73,13.64,29.85,13.76,30,13.76z"></path> <path d="M42.84,17.2c-0.05-0.07-0.13-0.1-0.21-0.1H17.37c-0.08,0-0.16,0.04-0.21,0.1l-6.8,8.74c-0.08,0.1-0.08,0.24,0,0.33 l19.43,25.26c0.05,0.07,0.13,0.1,0.21,0.1c0.02,0,0.05,0,0.06-0.01c0.03-0.01,0.07-0.03,0.11-0.06c0.02-0.01,0.03-0.02,0.04-0.04 l19.43-25.26c0.07-0.1,0.07-0.23,0-0.33L42.84,17.2z M32.4,45.68C32.4,45.68,32.4,45.68,32.4,45.68l7.17-19.29h9.31L33.55,46.31 l-2.85,3.79L32.4,45.68z M26.45,46.31C26.45,46.31,26.45,46.31,26.45,46.31L11.12,26.39h9.31l7.17,19.29l1.7,4.42L26.45,46.31z M39.35,25.42l-8.64-7.78h11.53L39.35,25.42z M39.01,25.84H20.99L30,17.74L39.01,25.84z M29.29,17.64l-8.64,7.78l-2.89-7.78H29.29z M39.77,25.84l2.94-7.92l6.16,7.92H39.77z M11.13,25.84l6.16-7.92l2.94,7.92H11.13z M38.99,26.39L30,50.59l-8.99-24.2H38.99z"></path> <path d="M15.25,14.67c0.05,0.05,0.12,0.07,0.19,0.07c0.07,0,0.14-0.03,0.2-0.08c0.05-0.05,0.08-0.12,0.08-0.19 c0-0.07-0.03-0.14-0.09-0.2l-3.88-3.88c-0.1-0.1-0.27-0.11-0.38,0c-0.05,0.05-0.08,0.12-0.08,0.19c0,0.07,0.02,0.13,0.07,0.18 L15.25,14.67z"></path> <path d="M44.57,14.73c0.07,0,0.14-0.03,0.19-0.08l3.88-3.88c0.1-0.11,0.1-0.27,0-0.37c-0.09-0.1-0.27-0.12-0.38-0.02l-3.89,3.88 c-0.05,0.05-0.08,0.12-0.08,0.19c0,0.07,0.03,0.14,0.08,0.19C44.43,14.7,44.5,14.73,44.57,14.73z"></path> <path d="M6.69,25.84H1.83c-0.15,0-0.27,0.12-0.27,0.27c0,0.15,0.12,0.27,0.27,0.27h4.86c0.15,0,0.27-0.12,0.27-0.27 C6.96,25.96,6.84,25.84,6.69,25.84z"></path> <path d="M58.17,25.84h-4.86c-0.15,0-0.27,0.12-0.27,0.27c0,0.15,0.12,0.27,0.27,0.27h4.86c0.15,0,0.27-0.12,0.27-0.27 C58.44,25.96,58.32,25.84,58.17,25.84z"></path> </g> </svg> 