<?xml version="1.0" encoding="UTF-8"?> <svg xmlns="http://www.w3.org/2000/svg" xmlns:xlink="http://www.w3.org/1999/xlink" version="1.1" id="Camada_1" x="0px" y="0px" viewBox="0 0 60 60" style="enable-background:new 0 0 60 60;" xml:space="preserve"> <path d="M28.92,48.22C18.87,48.22,10.7,40.05,10.7,30c0-10.05,8.17-18.22,18.22-18.22c6.9,0,13.32,4,16.36,10.19l0.86,1.76 l2.46-7.65l0.7,0.22l-2.91,9.03l-9.31-3.66l0.27-0.69l8.18,3.22l-0.88-1.82c-2.9-6-9.08-9.87-15.75-9.87 c-9.64,0-17.48,7.84-17.48,17.48s7.84,17.48,17.48,17.48c6.73,0,12.9-3.9,15.78-9.96l0.68,0.29C42.37,44.14,35.94,48.22,28.92,48.22 z"></path> </svg> 