<?xml version="1.0" encoding="UTF-8"?> <svg xmlns="http://www.w3.org/2000/svg" xmlns:xlink="http://www.w3.org/1999/xlink" version="1.1" id="Camada_1" x="0px" y="0px" viewBox="0 0 60 60" style="enable-background:new 0 0 60 60;" xml:space="preserve"> <path d="M30,52.22c-8.22,0-14.91-6.69-14.91-14.91c0-0.17,0.14-0.3,0.3-0.3s0.3,0.14,0.3,0.3c0,7.89,6.42,14.3,14.3,14.3 s14.31-6.42,14.31-14.3c0-0.17,0.14-0.3,0.3-0.3s0.3,0.14,0.3,0.3C44.91,45.53,38.22,52.22,30,52.22z M30,48.56 c-0.08,0-0.16-0.03-0.21-0.09L7.87,26.56c-0.12-0.12-0.12-0.31,0-0.43c0.06-0.06,0.13-0.09,0.22-0.09c0.08,0,0.16,0.03,0.21,0.09 L30,47.83l21.18-21.18h-5.66c-0.17,0-0.3-0.14-0.3-0.3c0-0.17,0.14-0.3,0.3-0.3h6.39c0.19,0.05,0.25,0.11,0.28,0.19 c0.02,0.04,0.02,0.08,0.02,0.12v6.39c0,0.17-0.14,0.3-0.3,0.3s-0.3-0.14-0.3-0.3v-5.66L30.21,48.48 C30.16,48.53,30.08,48.56,30,48.56z M30,41.26c-0.08,0-0.16-0.03-0.22-0.09l-9.13-9.13c-0.08-0.08-0.09-0.17-0.09-0.21 c0-0.05,0.01-0.14,0.09-0.21c0.08-0.08,0.17-0.09,0.21-0.09c0.05,0,0.14,0.01,0.22,0.09L30,40.53l8.4-8.4h-2.01 c-0.17,0-0.3-0.14-0.3-0.3c0-0.17,0.14-0.3,0.3-0.3h2.74c0.19,0.05,0.25,0.11,0.28,0.19l0.02,2.85c0,0.17-0.14,0.3-0.3,0.3 s-0.3-0.14-0.3-0.3v-2.01l-8.61,8.61C30.16,41.23,30.08,41.26,30,41.26z M16.73,31.21c-0.04,0-0.08-0.01-0.11-0.02 c-0.1-0.04-0.15-0.12-0.17-0.16c-0.02-0.04-0.04-0.13,0-0.23c1.54-3.76,4.13-7.15,6.65-10.43c0.99-1.29,1.93-2.52,2.81-3.77 l0.16-0.23c1.79-2.54,3.63-5.17,3.63-8.27c0-0.17,0.14-0.3,0.3-0.3s0.3,0.14,0.3,0.3c0,3.09,1.85,5.72,3.63,8.27l0.16,0.23 c0.88,1.25,1.82,2.48,2.81,3.77c2.51,3.29,5.11,6.68,6.65,10.43c0.04,0.1,0.02,0.19,0,0.23c-0.02,0.04-0.06,0.12-0.17,0.16 c-0.03,0-0.06,0-0.08,0c-0.18,0-0.27-0.07-0.31-0.17c-1.51-3.68-4.08-7.04-6.57-10.29c-0.95-1.24-1.93-2.52-2.82-3.79l-0.16-0.23 c-1.05-1.5-2.14-3.05-2.88-4.76L30,10.65l-0.56,1.29c-0.74,1.71-1.83,3.26-2.88,4.76l-0.16,0.23c-0.87,1.24-1.8,2.46-2.79,3.75 c-2.51,3.28-5.09,6.64-6.6,10.33C16.97,31.13,16.86,31.2,16.73,31.21z"></path> </svg> 