<?xml version="1.0" encoding="UTF-8"?> <svg xmlns="http://www.w3.org/2000/svg" xmlns:xlink="http://www.w3.org/1999/xlink" version="1.1" id="Camada_1" x="0px" y="0px" viewBox="0 0 60 60" style="enable-background:new 0 0 60 60;" xml:space="preserve"> <g> <path d="M33.41,48.82c-2.07,0-4-1.56-4.38-3.56c-0.21-1.12-0.4-2.24-0.58-3.36l-0.27-1.61l-0.02-0.09 c-0.06-0.28-0.2-0.94-0.96-0.95h0c-0.77,0-0.93,0.65-1,0.93l-0.27,1.07c-0.14,0.56-0.27,1.11-0.42,1.66 c-0.38,1.44-1.82,2.98-4.06,2.98c-0.11,0-0.23,0-0.34-0.01c-1.76-0.12-3.34-1.6-3.69-3.43c-0.34-1.84,0.52-3.68,2.15-4.58 c0.47-0.26,0.94-0.5,1.42-0.73c0.34-0.17,0.68-0.34,1.01-0.51c0.36-0.19,0.61-0.49,0.7-0.85c0.08-0.34,0.01-0.69-0.2-0.99 c-0.23-0.33-0.58-0.51-0.97-0.51c-0.15,0-0.31,0.03-0.47,0.08l-1.45,0.46c-0.76,0.24-1.51,0.48-2.27,0.71 c-0.48,0.15-0.97,0.22-1.47,0.22c-1.91,0-3.61-1.08-4.34-2.74c-0.56-1.29-0.43-2.77,0.35-3.95c0.78-1.19,2.08-1.89,3.48-1.89 c0.65,0,1.25,0.15,1.87,0.43c0.57,0.27,1.15,0.53,1.73,0.79c0.57,0.26,1.15,0.52,1.72,0.79c0.22,0.1,0.41,0.15,0.59,0.15 c0.22,0,0.54-0.08,0.78-0.44c0.14-0.22,0.4-0.78-0.26-1.38l-0.77-0.69c-0.72-0.64-1.46-1.31-2.15-1.99 c-0.74-0.73-1.03-1.78-0.76-2.8c0.27-1.03,1.04-1.8,2.06-2.08c0.25-0.07,0.51-0.1,0.78-0.1c1.34,0,2.6,0.85,3.13,2.12 c0.16,0.38,0.3,0.78,0.45,1.17l0.24,0.64c0.25,0.65,0.74,1.03,1.33,1.03c0.14,0,0.28-0.02,0.42-0.06c0.72-0.21,1.1-0.88,0.96-1.7 l-0.28-1.73c-0.27-1.61-0.53-3.21-0.77-4.83c-0.36-2.45,1.3-4.74,3.78-5.22c0.07-0.01,0.12-0.04,0.17-0.06h1.13 c0.18,0.07,0.37,0.14,0.56,0.2c0.46,0.16,0.9,0.31,1.26,0.55c0.46,0.3,0.86,0.79,1.24,1.26l0.09,0.11 c0.06,0.07,0.08,0.14,0.07,0.21c-0.01,0.08-0.06,0.15-0.13,0.2c-0.06,0.04-0.12,0.06-0.18,0.06c-0.13,0-0.21-0.1-0.27-0.19 c-0.67-1.11-1.9-1.81-3.22-1.81c-0.49,0-0.97,0.1-1.42,0.28c-1.76,0.73-2.77,2.55-2.46,4.42c0.36,2.18,0.71,4.37,1.06,6.56 c0.16,1.02-0.46,2-1.44,2.28c-0.18,0.05-0.36,0.08-0.55,0.08c-0.8,0-1.53-0.49-1.84-1.24c-0.14-0.33-0.26-0.66-0.39-0.99 c-0.12-0.33-0.25-0.67-0.39-1c-0.43-1.02-1.47-1.73-2.53-1.73c-0.15,0-0.29,0.01-0.44,0.04c-0.95,0.19-1.58,0.76-1.83,1.65 c-0.25,0.9-0.01,1.72,0.69,2.37c0.4,0.37,0.81,0.74,1.21,1.1c0.56,0.51,1.12,1.02,1.68,1.54c0.49,0.46,0.65,0.98,0.49,1.59 c-0.17,0.62-0.55,1-1.17,1.15c-0.12,0.03-0.24,0.05-0.36,0.05c-0.24,0-0.49-0.06-0.76-0.18l-0.51-0.24 c-1.04-0.48-2.07-0.96-3.12-1.41c-0.48-0.21-0.99-0.32-1.5-0.32c-1.75,0-3.23,1.28-3.52,3.05c-0.31,1.89,1.06,3.77,3.06,4.21 c0.32,0.07,0.65,0.11,0.97,0.11c0.47,0,0.95-0.08,1.42-0.23c1.18-0.38,2.36-0.75,3.54-1.12c0.23-0.07,0.47-0.11,0.69-0.11 c0.77,0,1.4,0.43,1.69,1.15c0.37,0.92-0.03,1.88-1,2.38c-0.26,0.13-0.52,0.26-0.79,0.39c-0.53,0.26-1.05,0.52-1.57,0.81 c-1.01,0.57-1.69,1.56-1.86,2.72c-0.17,1.12,0.18,2.23,0.94,3.02c0.72,0.75,1.57,1.14,2.53,1.14c0.3,0,0.62-0.04,0.94-0.12 c1.31-0.33,2.19-1.19,2.56-2.5c0.18-0.63,0.33-1.27,0.49-1.91l0.2-0.83c0.2-0.81,0.79-1.31,1.53-1.31 c0.85,0.02,1.41,0.54,1.56,1.37c0.14,0.74,0.26,1.49,0.39,2.23c0.16,0.97,0.33,1.94,0.51,2.91c0.31,1.62,1.67,2.82,3.46,3.05 c0.13,0.02,0.25,0.02,0.38,0.02c1.28,0,2.55-0.79,3.16-1.97c0.7-1.35,0.48-3.01-0.56-4.12c-0.35-0.38-0.71-0.75-1.08-1.12 c-0.42-0.44-0.85-0.88-1.26-1.32c-0.35-0.38-0.52-0.85-0.47-1.32c0.04-0.45,0.28-0.86,0.67-1.14c0.3-0.22,0.62-0.34,0.94-0.34 c0.26,0,0.53,0.07,0.81,0.21c0.48,0.25,0.96,0.51,1.44,0.77c0.29,0.16,0.58,0.32,0.87,0.47c0.49,0.26,1,0.39,1.51,0.39 c0.36,0,0.72-0.07,1.08-0.2c0.85-0.31,1.39-1.11,1.34-1.99c-0.05-0.86-0.66-1.59-1.53-1.81c-0.33-0.08-0.66-0.16-0.99-0.24 c-0.3-0.07-0.6-0.14-0.9-0.21c-1.12-0.28-1.89-1.23-1.9-2.36c-0.01-1.12,0.75-2.11,1.86-2.39c0.69-0.18,1.39-0.35,2.08-0.52 c0.83-0.2,1.65-0.4,2.47-0.62c1.16-0.31,2.15-1.09,2.71-2.15c0.55-1.03,0.64-2.18,0.27-3.25c-0.53-1.53-1.98-2.56-3.6-2.56 c-1,0-1.94,0.4-2.64,1.12c-0.85,0.88-1.66,1.82-2.44,2.74l-0.74,0.87c-0.53,0.61-1.08,0.93-1.74,1.01 c-0.09,0.01-0.19,0.02-0.28,0.02c-0.75,0-1.46-0.36-1.92-0.97c-0.44-0.59-0.58-1.34-0.37-2.04c0.25-0.83,0.55-1.67,0.84-2.48 L33.32,20c0.03-0.08,0.11-0.26,0.3-0.26c0.04,0,0.08,0.01,0.12,0.02c0.24,0.09,0.17,0.37,0.14,0.46c-0.15,0.45-0.31,0.91-0.47,1.36 c-0.19,0.54-0.37,1.08-0.56,1.62c-0.25,0.74-0.07,1.42,0.5,1.93c0.34,0.3,0.74,0.46,1.16,0.46c0.25,0,0.51-0.06,0.77-0.17 c0.23-0.1,0.45-0.27,0.68-0.53c0.48-0.54,0.95-1.08,1.42-1.62c0.54-0.62,1.08-1.24,1.63-1.86c0.93-1.05,2.02-1.58,3.24-1.58 c0.35,0,0.71,0.04,1.08,0.13c1.75,0.4,2.87,1.51,3.32,3.3c0.63,2.5-1,5.08-3.64,5.76c-1.09,0.28-2.19,0.55-3.28,0.81l-1.01,0.24 c-0.97,0.23-1.54,0.92-1.54,1.83c0,0.92,0.58,1.6,1.54,1.83c0.26,0.06,0.51,0.12,0.77,0.18c0.29,0.07,0.58,0.13,0.87,0.2 c1.35,0.33,2.14,1.31,2.12,2.61c-0.03,1.27-0.9,2.26-2.23,2.53c-0.27,0.05-0.54,0.08-0.8,0.08c-0.61,0-1.21-0.15-1.77-0.46 l-2.12-1.14c-0.28-0.15-0.52-0.22-0.74-0.22c-0.22,0-0.54,0.07-0.79,0.43c-0.33,0.47-0.25,0.96,0.24,1.48l0.67,0.69 c0.49,0.51,0.98,1.01,1.46,1.53c1.07,1.14,1.46,2.69,1.03,4.16c-0.43,1.45-1.58,2.54-3.08,2.91 C34.07,48.78,33.74,48.82,33.41,48.82z"></path> <path d="M45.96,47.33c-0.39,0-0.76-0.07-1.12-0.22c-1.14-0.46-1.9-1.7-1.79-2.88c0.14-1.33,1.11-2.41,2.37-2.63 c0.17-0.03,0.34-0.04,0.51-0.04c1.35,0,2.51,0.93,2.83,2.26c0.02,0.07,0.04,0.13,0.06,0.19v0.86c-0.06,0.14-0.12,0.28-0.18,0.42 c-0.14,0.35-0.28,0.68-0.47,0.95C47.68,46.92,46.85,47.33,45.96,47.33z M45.94,42.18c-1.26,0-2.26,0.99-2.28,2.25 c-0.01,0.61,0.22,1.18,0.65,1.62c0.42,0.43,0.99,0.68,1.6,0.68l0,0c1.29,0,2.32-1.02,2.32-2.27C48.23,43.2,47.21,42.18,45.94,42.18 L45.94,42.18z"></path> <path d="M15.1,18.42c-1.61-0.02-2.86-1.3-2.86-2.92c0-1.57,1.29-2.85,2.88-2.85c0.78,0,1.51,0.31,2.06,0.86 c0.54,0.55,0.84,1.27,0.84,2.04c-0.01,1.56-1.33,2.87-2.88,2.87L15.1,18.42z M15.13,13.27c-0.62,0-1.2,0.24-1.64,0.68 c-0.43,0.43-0.66,1-0.66,1.6c0,1.25,1.03,2.27,2.28,2.27c1.27,0,2.27-0.99,2.28-2.25c0.01-0.61-0.23-1.19-0.65-1.62 c-0.42-0.43-0.99-0.67-1.59-0.67H15.13z"></path> </g> </svg> 