<?xml version="1.0" encoding="UTF-8"?> <svg xmlns="http://www.w3.org/2000/svg" xmlns:xlink="http://www.w3.org/1999/xlink" version="1.1" id="Camada_1" x="0px" y="0px" viewBox="0 0 50 50" style="enable-background:new 0 0 50 50;" xml:space="preserve"> <g> <path d="M20.03,41.53c-0.03,0-0.06-0.01-0.08-0.02c-0.06-0.02-0.11-0.07-0.14-0.13c-0.03-0.06-0.03-0.12,0-0.18l3.02-7.85 c0.04-0.09,0.12-0.15,0.23-0.15c0.03,0,0.06,0.01,0.09,0.02c0.06,0.02,0.11,0.07,0.13,0.13c0.03,0.06,0.03,0.12,0,0.18l-3.02,7.85 C20.22,41.48,20.12,41.53,20.03,41.53C20.03,41.53,20.03,41.53,20.03,41.53z"></path> <path d="M41.16,41.52c-0.1,0-0.16-0.05-0.2-0.15l-2.89-7.51c-0.05-0.14-0.1-0.25-0.14-0.34l0.01,0.01 c-0.03-0.09-0.03-0.16,0.01-0.21c0.05-0.07,0.14-0.11,0.23-0.11c0.1,0,0.16,0.05,0.21,0.16l3.02,7.85c0.04,0.11,0.01,0.17-0.01,0.2 C41.35,41.47,41.25,41.52,41.16,41.52L41.16,41.52z"></path> <path d="M30.31,33.67c-0.13,0-0.24-0.11-0.24-0.24v-2.42c0-0.13,0.11-0.24,0.24-0.24c0.13,0,0.24,0.11,0.24,0.24v2.42 C30.55,33.56,30.44,33.67,30.31,33.67z"></path> <path d="M30.31,39.71c-0.13,0-0.24-0.11-0.24-0.24v-3.02c0-0.13,0.11-0.24,0.24-0.24c0.13,0,0.24,0.11,0.24,0.24v3.02 C30.55,39.61,30.44,39.71,30.31,39.71z"></path> <path d="M18.5,34.33c-0.03,0-0.07-0.01-0.1-0.02c-3.14-1.39-5.56-3.16-7.2-5.26c-1.79-2.3-2.7-5.07-2.7-8.23v-7.76 c0-0.09,0.06-0.18,0.14-0.22l9.76-4.34c0.03-0.01,0.06-0.02,0.1-0.02c0.03,0,0.07,0.01,0.1,0.02l9.76,4.34 c0.09,0.04,0.14,0.12,0.14,0.22v1.7c0,0.13-0.11,0.24-0.24,0.24c-0.13,0-0.24-0.11-0.24-0.24v-1.55L18.5,8.98l-9.52,4.23v7.61 c0.01,5.84,3.08,10.07,9.37,12.94l0.15,0.07l0.15-0.07c1.03-0.47,1.98-0.98,2.84-1.53c0.04-0.02,0.08-0.04,0.13-0.04 c0.08,0,0.16,0.04,0.2,0.11c0.07,0.11,0.04,0.26-0.07,0.33c-0.94,0.6-2,1.16-3.15,1.67C18.56,34.32,18.53,34.33,18.5,34.33z"></path> <path d="M37.75,31.22c-0.51,0-0.93-0.42-0.93-0.93v-0.83H23.85v0.83c0,0.51-0.42,0.93-0.93,0.93h-2.83c-0.51,0-0.93-0.42-0.93-0.93 v-6c0-0.85,0.52-1.94,1.19-2.47l1.33-1.06l0.2-0.18l-0.24-0.06l-1.23-0.25c-0.11-0.02-0.18-0.11-0.18-0.22v-1.06 c0-0.12,0.1-0.23,0.23-0.23h1.77c0.12,0,0.23,0.1,0.23,0.23v1l0.25-0.34l0.02-0.03c0.01-0.04,0.04-0.07,0.07-0.1l0.01-0.01 l0.01-0.01c0.21-0.3,0.38-0.59,0.49-0.83l0.6-1.31c0.36-0.8,1.33-1.42,2.2-1.42h8.48c0.87,0,1.84,0.62,2.2,1.42l0.6,1.31 c0.11,0.24,0.28,0.53,0.49,0.83l0.01,0.01l0.01,0.01c0.03,0.03,0.06,0.06,0.07,0.1l0.01,0.02l0.26,0.35l0.01-0.38v-0.62 c0-0.12,0.1-0.23,0.23-0.23h1.77c0.12,0,0.23,0.1,0.23,0.23v1.06c0,0.11-0.08,0.2-0.18,0.22l-1.5,0.3l0.21,0.17L39,20.76l1.33,1.06 c0.67,0.53,1.19,1.62,1.19,2.47v6c0,0.51-0.42,0.93-0.93,0.93H37.75z M37.27,30.29c0,0.27,0.22,0.48,0.48,0.48h2.83 c0.27,0,0.48-0.22,0.48-0.48v-1.32l-0.2,0.15c-0.29,0.22-0.63,0.34-0.98,0.34h-2.6V30.29z M19.61,30.29c0,0.27,0.22,0.48,0.48,0.48 h2.83c0.27,0,0.48-0.22,0.48-0.48v-0.83h-2.6c-0.35,0-0.69-0.12-0.98-0.34l-0.2-0.15V30.29z M34.92,27.59 c0.45,0,1.05,0.25,1.37,0.57l0.85,0.85h2.73c0.65,0,1.19-0.53,1.19-1.19v-1.89h-0.61v0.48c0,0.71-0.58,1.29-1.29,1.29H38.1 c-0.12,0-0.23-0.1-0.23-0.23c0-0.12,0.1-0.23,0.23-0.23h1.06c0.46,0,0.83-0.37,0.83-0.83v-0.48h-0.83c-0.33,0-0.82,0.2-1.05,0.43 c-0.04,0.04-0.1,0.07-0.16,0.07c-0.06,0-0.12-0.02-0.16-0.07c-0.09-0.09-0.09-0.23,0-0.32c0.32-0.32,0.92-0.57,1.37-0.57h1.89 v-1.19c0-0.12-0.02-0.25-0.05-0.42l-0.05-0.24l-0.17,0.18c-0.23,0.24-0.54,0.36-0.92,0.36h-2.83c-0.06,0-0.12-0.02-0.16-0.07 l-0.55-0.55l-0.55,0.55c-0.04,0.04-0.1,0.07-0.16,0.07h-4.15l-0.99,0.99c-0.04,0.04-0.1,0.07-0.16,0.07 c-0.06,0-0.12-0.02-0.16-0.07l-0.99-0.99h-4.15c-0.06,0-0.12-0.02-0.16-0.07l-0.55-0.55l-0.55,0.55c-0.04,0.04-0.1,0.07-0.16,0.07 H20.8c-0.38,0-0.69-0.12-0.92-0.36l-0.17-0.18l-0.05,0.24c-0.03,0.17-0.05,0.3-0.05,0.42v1.19h1.89c0.46,0,1.04,0.24,1.37,0.57 c0.09,0.09,0.09,0.23,0,0.32c-0.04,0.04-0.1,0.07-0.16,0.07c-0.06,0-0.12-0.02-0.16-0.07c-0.23-0.23-0.72-0.43-1.05-0.43h-0.83 v0.48c0,0.46,0.37,0.83,0.83,0.83h1.06c0.12,0,0.23,0.1,0.23,0.23c0,0.12-0.1,0.23-0.23,0.23H21.5c-0.71,0-1.29-0.58-1.29-1.29 v-0.48h-0.61v1.89c0,0.65,0.53,1.19,1.19,1.19h2.56l0.85-0.85c0.32-0.32,0.92-0.57,1.37-0.57H34.92z M25.56,28.05 c-0.33,0-0.82,0.2-1.05,0.43l-0.53,0.53H36.5l-0.53-0.53c-0.23-0.23-0.72-0.43-1.05-0.43H25.56z M24.08,22.67 c0.02,0.01,0.04,0.02,0.06,0.04l0.99,0.99h4.15c0.06,0,0.12,0.02,0.16,0.07l0.9,0.9l0.9-0.9c0.04-0.04,0.1-0.07,0.16-0.07h4.15 l0.99-0.99c0.02-0.02,0.03-0.03,0.06-0.04h0.03l0.02-0.02l2.68-1.07l-0.6-0.48c-0.32-0.26-0.71-0.67-1.06-1.14l-0.04-0.05H23.05 l-0.04,0.05c-0.35,0.46-0.74,0.88-1.06,1.14l-0.6,0.48l2.69,1.07l0.02,0.02L24.08,22.67z M36.82,23.07l-0.16,0.16l0.48,0.48h2.73 c0.45,0,0.73-0.23,0.81-0.66L40.69,23l-0.02-0.04c-0.19-0.34-0.4-0.61-0.63-0.79l-0.32-0.26L36.82,23.07z M20.63,22.17 c-0.23,0.18-0.44,0.45-0.63,0.79L19.98,23l0.01,0.05c0.08,0.43,0.36,0.66,0.81,0.66h2.73l0.48-0.48l-0.16-0.16l-2.9-1.16 L20.63,22.17z M38.68,20.13L40,19.86v-0.65h-1.31V20.13z M20.67,19.86l1.31,0.26v-0.91h-1.31V19.86z M26.09,16.39 c-0.69,0-1.51,0.53-1.79,1.15l-0.6,1.31c-0.05,0.12-0.12,0.25-0.23,0.42l-0.11,0.19H37.3l-0.11-0.19c-0.1-0.17-0.17-0.3-0.23-0.42 l-0.6-1.31c-0.28-0.63-1.11-1.15-1.79-1.15H26.09z"></path> </g> </svg> 